{"glyphs":{"0":{"ha":832,"x_min":-4,"x_max":761,"o":"m 397 857 q 349 833 372 844 l 311 817 q 286 800 299 811 q 171 314 131 668 q 244 110 186 186 q 383 65 299 39 q 484 156 436 82 q 560 347 532 231 q 583 567 586 464 q 554 725 581 669 q 497 807 525 788 q 478 819 488 814 q 443 835 467 825 q 397 857 419 846 m 381 1024 q 461 1024 421 1044 l 506 1003 q 560 975 538 988 q 600 951 583 963 q 715 800 665 906 q 760 571 757 711 q 732 307 764 431 q 692 179 717 240 q 633 60 668 118 q 548 -42 599 1 q 436 -104 497 -85 q 247 -106 332 -137 q 103 1 161 -75 q -4 294 17 114 q 172 936 -56 743 q 223 969 193 953 q 284 1001 253 986 q 318 1015 315 1015 q 381 1024 349 1032 z "},"1":{"ha":361,"x_min":-22,"x_max":289,"o":"m 11 938 q 18 944 15 940 l 29 961 q 51 989 38 972 q 106 1035 78 1019 q 219 1032 164 1065 q 289 879 296 988 q 283 828 288 865 q 281 797 281 806 q 276 714 281 767 q 272 650 272 668 q 276 50 272 194 q 253 -14 278 13 q 190 -42 226 -40 q 126 -17 153 -43 q 99 44 100 8 q 94 650 94 192 q 100 731 94 676 q 103 788 103 768 q 47 782 76 775 q -3 813 17 789 q -22 877 -25 840 q 11 938 -18 914 z "},"2":{"ha":806,"x_min":-21,"x_max":735,"o":"m 10 824 q 339 1015 193 979 q 551 982 465 1047 q 658 746 643 913 q 510 433 675 556 q 388 357 482 414 q 292 289 321 318 q 225 196 261 261 q 201 158 218 183 q 190 142 192 144 q 289 133 225 133 q 413 139 332 133 q 514 144 493 144 q 656 131 518 144 q 715 98 692 126 q 734 33 738 69 q 702 -27 731 -4 q 636 -47 674 -50 q 595 -42 621 -44 q 549 -36 569 -39 q 508 -33 528 -33 q 426 -37 496 -33 q 289 -44 340 -44 q 142 -29 200 -44 q 13 78 40 -1 q 29 217 -11 142 l 53 256 q 69 282 65 275 q 169 419 118 371 q 296 510 214 460 q 404 576 394 569 q 467 644 449 610 q 481 729 486 678 q 443 840 474 818 q 382 843 426 854 q 126 688 276 817 q 61 667 97 664 q 1 698 25 669 q -21 763 -24 726 q 10 824 -18 799 z "},"3":{"ha":768,"x_min":-17,"x_max":692,"o":"m 142 221 l 186 175 q 220 138 213 146 q 245 119 228 131 q 278 104 263 107 q 317 101 293 101 q 404 127 356 100 q 486 197 453 154 q 493 342 549 279 q 461 357 486 349 q 425 367 450 360 q 378 379 394 374 l 343 378 q 211 457 239 375 q 207 513 201 485 q 253 572 217 551 q 313 585 278 586 q 340 583 318 585 q 364 583 354 582 q 451 622 418 583 q 475 694 475 650 q 453 772 476 738 q 346 825 425 814 q 215 808 263 838 q 194 792 203 800 q 171 765 186 783 q 135 725 156 746 q 72 699 108 699 q 10 725 36 699 q -17 788 -17 751 q 10 850 -17 824 l 31 875 q 76 922 51 899 q 121 958 100 946 q 372 1001 225 1024 q 600 872 529 978 q 647 757 635 821 q 645 626 660 693 q 588 508 631 560 l 579 499 q 624 461 604 482 q 691 331 678 401 q 685 201 704 260 q 626 89 667 142 q 485 -31 571 17 q 314 -76 400 -78 q 225 -65 265 -75 q 151 -31 185 -54 q 101 6 118 -8 q 53 55 83 21 q 14 96 22 89 q -11 159 -11 122 q 15 222 -11 196 q 78 247 42 247 q 142 221 115 247 z "},"4":{"ha":856,"x_min":-29,"x_max":785,"o":"m 219 943 l 178 713 l 156 576 l 149 521 q 158 485 150 499 q 221 481 193 481 q 388 485 278 479 q 454 489 422 486 q 426 950 449 753 q 445 1015 422 986 q 504 1048 468 1044 q 569 1028 540 1051 q 601 969 599 1006 q 632 501 625 774 q 694 504 675 504 q 757 479 731 504 q 784 417 783 454 q 760 354 785 381 q 697 326 735 328 q 635 324 678 326 q 636 210 635 308 q 639 61 638 113 q 614 -1 639 25 q 552 -28 589 -28 q 489 -4 515 -29 q 461 58 463 21 q 458 311 461 78 q 397 307 428 308 q 217 303 285 301 q 68 331 111 306 q -29 501 -15 379 q -19 601 -31 526 q 3 743 -12 656 l 44 974 q 81 1031 51 1010 q 147 1045 111 1051 q 204 1009 183 1039 q 219 943 225 979 z "},"5":{"ha":851,"x_min":-12,"x_max":781,"o":"m 96 1017 q 376 1021 171 1017 q 692 1025 581 1025 q 754 999 728 1025 q 781 936 781 972 q 754 874 781 900 q 692 847 728 847 q 199 840 650 847 q 188 663 194 767 l 185 629 q 194 632 190 631 q 328 653 264 650 q 463 644 393 657 q 594 583 533 632 q 694 457 654 536 q 735 289 739 371 q 697 141 731 207 q 604 22 664 75 q 406 -80 519 -51 q 178 -78 293 -108 q 122 -55 153 -71 q 63 -21 92 -39 q 32 -1 33 -3 q -12 51 -1 15 q -5 119 -22 86 q 48 162 13 151 q 115 154 83 172 q 164 126 142 140 q 199 104 186 111 q 228 92 211 97 q 363 92 292 75 q 488 157 435 110 q 553 256 539 201 q 536 376 567 311 q 424 472 499 453 q 239 460 349 490 q 236 459 238 460 q 233 457 235 458 q 229 453 232 456 l 222 449 q 213 441 219 446 q 199 432 206 436 q 33 421 107 368 q 0 472 7 440 q -3 485 -1 479 l -3 489 l -3 492 l -3 494 l -3 496 l -3 499 l -3 500 l -3 503 q -2 508 -3 504 q -1 514 -1 513 l 1 553 l 11 675 q 22 879 21 813 q 8 926 8 901 q 34 990 8 964 q 96 1017 60 1017 z "},"6":{"ha":733,"x_min":-44,"x_max":661,"o":"m 125 389 q 131 271 122 328 q 193 129 144 176 q 322 92 240 83 q 404 117 379 96 q 458 192 435 140 q 485 303 481 243 q 472 404 489 363 q 425 464 456 446 q 361 485 394 482 q 290 477 328 489 q 215 445 251 465 q 131 392 178 425 l 125 389 m 363 881 l 322 846 q 287 815 300 828 q 263 789 274 803 q 169 621 206 718 q 517 617 361 708 q 634 477 600 567 q 661 290 668 388 q 617 115 654 200 q 515 -22 579 29 q 339 -86 449 -75 q 69 3 176 -100 q -44 246 -24 92 q -25 592 -68 414 q 124 900 19 771 q 163 941 140 919 q 210 984 185 963 q 240 1011 235 1006 q 305 1035 268 1036 q 367 1006 342 1033 q 390 942 392 979 q 363 881 389 906 z "},"7":{"ha":811,"x_min":-46,"x_max":733,"o":"m 39 988 q 500 999 275 997 q 512 1000 506 999 q 533 1006 518 1001 q 569 1014 549 1010 q 731 946 689 1038 q 733 878 746 913 q 726 864 731 871 q 718 850 724 858 q 700 825 713 842 l 647 756 q 538 610 547 624 q 411 365 460 494 q 331 72 363 235 q 292 16 322 36 q 225 3 261 -4 q 169 42 189 11 q 156 108 149 72 q 246 431 192 283 q 390 710 299 574 q 472 821 414 744 q 47 810 310 819 q -17 833 11 808 q -46 894 -44 858 q -22 958 -47 931 q 39 988 3 986 z "},"8":{"ha":779,"x_min":-14,"x_max":694,"o":"m 297 578 l 365 604 q 485 678 456 643 q 496 765 513 710 q 432 839 486 799 q 396 856 422 847 l 382 860 q 347 851 367 856 q 332 849 346 851 q 310 843 318 846 q 275 831 283 838 q 228 739 249 808 q 224 615 201 646 q 297 578 239 596 m 289 1021 q 334 1049 307 1042 q 389 1044 361 1056 q 408 1038 399 1040 l 431 1031 q 451 1025 443 1028 q 540 981 506 1007 q 665 815 639 904 q 621 563 710 668 q 540 494 589 526 q 685 314 647 431 q 694 110 724 192 q 606 -24 667 31 q 471 -99 543 -78 q 324 -117 399 -121 q 177 -81 246 -112 q 54 17 108 -50 q -14 174 0 82 q 6 381 -33 297 q 101 486 35 440 q 82 508 90 497 q 58 789 7 610 q 161 967 93 910 q 268 1017 201 1000 q 289 1021 276 1018 m 307 392 q 251 367 276 379 q 167 303 181 333 q 161 201 150 271 q 218 102 171 139 q 333 61 265 65 q 456 87 403 57 q 528 168 510 117 q 515 261 536 194 q 499 297 508 281 q 474 325 490 313 q 446 345 458 338 q 406 363 433 353 q 362 376 378 372 q 307 392 346 381 z "},"9":{"ha":743,"x_min":-43,"x_max":664,"o":"m 486 551 l 489 568 q 478 744 504 683 q 364 836 451 808 q 274 849 303 857 q 194 791 231 836 q 142 685 157 746 q 142 580 128 624 q 193 515 156 536 q 314 501 240 488 q 394 524 343 507 l 486 551 m 424 346 q 347 328 381 333 q 104 360 210 300 q 19 435 53 390 q -28 528 -15 479 q -42 629 -40 576 q -31 728 -44 682 q 60 909 -7 826 q 224 1018 128 992 q 419 1006 306 1042 q 642 814 583 953 q 664 543 688 706 q 608 321 647 418 q 503 149 568 224 q 358 18 439 74 q 165 -89 278 -37 q 97 -92 132 -104 q 47 -46 63 -79 q 44 22 32 -12 q 90 72 57 57 q 297 194 218 131 q 424 346 378 258 z "}," ":{"ha":417,"x_min":0,"x_max":0,"o":""},"!":{"ha":324,"x_min":51,"x_max":253,"o":"m 229 981 q 253 347 253 717 q 226 285 253 311 q 164 258 200 258 q 101 285 128 258 q 75 347 75 311 q 51 964 75 708 q 72 1029 49 1001 q 133 1060 96 1057 q 197 1040 169 1064 q 229 981 225 1017 m 226 142 q 240 128 226 142 q 253 79 253 115 q 226 17 253 43 q 164 -10 200 -10 q 101 17 128 -10 q 75 79 75 43 q 101 142 75 115 q 164 168 128 168 q 226 142 200 168 z "},"\"":{"ha":474,"x_min":-18,"x_max":401,"o":"m 160 965 q 168 650 164 793 q 144 586 169 613 q 81 558 118 560 q 18 583 44 557 q -10 644 -8 608 q -18 960 -14 788 q 6 1024 -19 997 q 69 1051 32 1050 q 132 1027 106 1053 q 160 965 158 1001 m 394 972 q 397 888 397 910 q 400 838 400 844 q 401 808 400 832 q 401 778 401 783 l 401 731 l 401 647 q 375 585 401 611 q 313 558 349 558 q 250 585 276 558 q 224 647 224 611 l 224 729 l 224 775 l 224 803 q 223 833 224 826 q 219 881 222 839 q 217 964 218 914 q 240 1028 215 1001 q 302 1057 265 1056 q 366 1033 339 1058 q 394 972 393 1008 z "},"#":{"ha":1100,"x_min":-49,"x_max":1029,"o":"m 561 454 q 581 624 572 544 q 374 614 482 619 l 349 442 l 561 454 m 538 275 q 321 261 415 268 l 286 50 q 250 -7 281 14 q 183 -22 219 -28 q 126 14 147 -17 q 111 81 106 44 l 139 249 l 58 242 q -6 263 22 239 q -37 323 -33 286 q -17 388 -40 360 q 44 419 7 415 q 167 429 103 424 l 193 606 l 46 596 q -18 619 10 594 q -48 679 -46 643 q -26 743 -50 715 q 35 774 -1 771 q 218 785 133 779 l 246 976 q 280 1035 250 1013 q 346 1052 310 1057 q 404 1017 382 1047 q 421 951 426 988 l 399 793 q 596 801 501 799 q 603 913 600 858 q 633 974 606 950 q 697 997 660 999 q 758 967 733 994 q 781 904 782 940 q 774 806 778 856 q 940 807 860 807 q 1003 781 976 807 q 1029 718 1029 754 q 1003 656 1029 682 q 940 629 976 629 q 758 628 851 629 q 740 464 751 551 l 922 474 q 987 451 960 475 q 1016 390 1014 426 q 994 326 1018 353 q 933 296 969 299 l 718 285 l 682 25 q 649 -35 678 -12 q 583 -52 619 -57 q 524 -18 546 -47 q 507 47 501 11 l 538 275 z "},"$":{"ha":933,"x_min":-53,"x_max":858,"o":"m 317 681 q 315 882 315 793 q 254 847 285 869 q 176 767 204 810 q 160 715 153 731 q 215 694 171 704 q 317 681 250 686 m 496 478 q 499 122 499 244 q 649 222 594 154 q 660 388 713 303 q 496 478 619 451 m 492 1068 q 782 939 614 1043 q 821 884 813 919 q 810 817 829 849 q 755 778 790 786 q 688 789 719 769 q 493 885 568 861 q 494 660 493 788 q 810 482 724 621 q 858 347 850 415 q 847 221 867 278 q 788 113 828 164 q 659 2 736 47 q 500 -60 582 -43 l 500 -179 q 474 -242 500 -215 q 411 -268 447 -268 q 349 -242 375 -268 q 322 -179 322 -215 l 322 -74 q 179 -31 244 -67 q 142 -6 161 -19 q 108 20 122 8 q 72 53 93 32 l 39 86 l 6 124 q -28 158 -19 150 q -53 222 -54 185 q -25 284 -51 258 q 38 308 1 310 q 100 281 75 307 q 132 247 111 269 q 161 215 153 224 l 185 192 q 208 169 200 176 l 226 153 q 247 137 238 143 q 265 125 256 131 q 321 106 292 111 q 318 501 321 233 q 178 521 225 511 q 4 632 47 549 q 28 864 -54 740 q 149 989 74 933 q 314 1068 226 1049 l 314 1154 q 340 1217 314 1190 q 403 1243 367 1243 q 465 1217 439 1243 q 492 1154 492 1190 l 492 1068 z "},"%":{"ha":1046,"x_min":13,"x_max":975,"o":"m 199 821 q 194 745 178 775 q 244 713 210 715 q 272 719 254 711 q 304 746 289 728 q 319 793 329 775 q 283 824 313 806 q 264 835 278 826 q 243 846 250 843 q 226 838 236 843 q 215 832 217 833 q 199 821 203 825 m 171 1008 q 230 1041 194 1036 q 293 1024 265 1046 q 313 1010 303 1017 q 341 995 324 1004 q 374 976 358 986 q 478 874 449 932 q 500 781 503 828 q 481 697 497 733 q 439 629 465 661 q 344 558 400 585 q 231 535 289 531 q 102 581 154 542 q 30 676 50 621 q 13 793 10 732 q 42 906 15 854 q 129 988 68 954 l 157 1001 l 171 1008 m 678 281 q 650 226 658 257 q 647 169 642 196 q 711 122 657 121 q 775 181 756 122 q 779 199 778 190 q 781 215 781 208 q 780 228 781 222 q 778 237 779 233 q 775 243 776 240 l 772 247 l 772 249 q 718 269 756 260 q 678 281 715 271 m 794 432 q 875 393 840 417 q 939 314 918 364 q 958 217 960 264 q 943 126 957 171 q 860 -1 919 53 q 714 -56 801 -54 q 552 -3 615 -57 q 472 135 489 51 q 482 284 458 208 q 560 414 506 360 q 583 433 569 425 q 650 468 608 467 l 656 469 q 671 478 665 475 q 739 483 704 494 q 792 440 774 472 l 794 432 m 56 114 q 450 581 197 272 l 819 1019 q 880 1050 843 1047 q 944 1028 917 1053 q 975 967 972 1004 q 953 903 978 931 l 583 461 q 186 -6 336 163 q 126 -34 163 -32 q 62 -12 89 -36 q 33 49 35 13 q 56 114 31 86 z "},"&":{"ha":893,"x_min":-18,"x_max":822,"o":"m 350 506 l 338 496 q 160 203 146 343 q 190 114 165 144 q 357 93 251 43 q 438 149 400 114 q 497 222 475 183 l 467 292 q 375 471 413 415 q 350 506 361 492 m 693 228 q 719 181 706 203 q 741 150 729 165 q 771 114 753 135 l 803 76 q 822 10 826 47 q 788 -49 817 -26 q 723 -67 760 -72 q 664 -35 686 -62 q 633 3 660 -29 l 592 53 q 433 -67 522 -24 q 310 -104 372 -96 q 178 -88 247 -112 q 57 -3 110 -64 q -18 186 -7 71 q 226 635 -39 422 l 246 650 l 235 676 q 226 699 233 679 q 214 731 218 718 q 203 766 210 744 q 194 809 197 788 q 193 850 192 831 q 219 951 197 900 q 281 1036 242 1001 q 397 1085 332 1082 q 531 1040 463 1088 q 615 922 599 992 q 604 799 629 863 q 583 753 597 778 q 558 714 569 729 l 533 679 q 518 658 519 660 l 489 617 l 522 571 q 568 493 546 535 q 609 542 579 525 q 672 551 639 560 q 728 513 708 543 q 739 446 747 482 q 723 356 739 440 q 693 228 707 272 m 386 779 q 439 863 431 840 q 443 881 443 875 q 428 896 443 885 q 400 904 404 913 l 399 904 q 371 839 374 881 q 386 779 369 821 z "},"'":{"ha":288,"x_min":32,"x_max":217,"o":"m 213 961 q 210 915 211 939 q 210 883 210 890 l 210 867 q 210 849 210 857 q 211 828 211 842 l 214 786 q 217 724 215 758 q 193 659 218 686 q 131 631 168 632 q 67 654 94 629 q 39 715 40 679 l 36 774 q 34 813 35 801 q 33 840 33 824 q 32 858 32 856 l 32 875 q 33 894 32 889 q 34 924 33 899 q 35 967 35 949 q 63 1028 36 1003 q 126 1053 90 1054 q 188 1024 163 1051 q 213 961 214 997 z "},"(":{"ha":407,"x_min":-8,"x_max":332,"o":"m 313 1004 l 275 935 q 246 874 256 897 q 170 447 176 694 q 231 25 164 200 q 275 -68 246 -12 l 326 -169 q 331 -237 343 -201 q 287 -288 319 -272 q 219 -292 254 -304 q 168 -247 183 -281 l 117 -150 q 67 -42 85 -86 q -8 451 -15 172 q 82 938 -1 731 q 118 1017 94 972 q 130 1038 122 1025 q 143 1063 138 1051 l 154 1085 q 206 1128 171 1117 q 273 1124 240 1140 q 317 1072 306 1107 q 313 1004 329 1038 z "},")":{"ha":394,"x_min":-44,"x_max":322,"o":"m 188 1092 q 322 528 314 835 q 221 -43 331 221 q 192 -111 208 -75 l 153 -192 l 119 -258 q 69 -304 103 -292 q 1 -301 35 -317 q -44 -251 -32 -285 q -42 -183 -57 -217 q -10 -117 -31 -158 l 28 -42 l 57 24 q 145 524 153 256 q 29 1014 138 792 q 24 1082 13 1047 q 69 1133 36 1117 q 138 1137 103 1149 q 188 1092 172 1125 z "},"*":{"ha":694,"x_min":-57,"x_max":619,"o":"m 86 758 l 19 768 q -39 802 -17 772 q -56 868 -61 832 q -22 926 -51 904 q 44 943 8 949 l 132 931 l 128 994 q 151 1058 126 1031 q 212 1087 175 1085 q 276 1065 249 1089 q 306 1003 303 1040 l 310 921 l 324 924 q 366 930 356 928 q 404 940 376 932 l 508 974 q 576 967 543 985 q 619 915 608 950 q 613 848 631 881 q 561 804 596 815 l 458 772 q 403 756 422 760 l 375 751 l 513 607 q 538 544 539 581 q 510 481 536 507 q 447 457 483 456 q 385 485 410 458 l 228 649 l 225 646 q 196 617 201 624 q 183 601 189 610 l 158 564 l 113 496 q 56 458 92 465 q -11 472 19 451 q -49 529 -42 493 q -35 596 -56 565 l 0 646 q 26 685 18 672 q 44 711 35 699 q 61 732 53 724 q 86 758 71 744 z "},"+":{"ha":819,"x_min":-29,"x_max":749,"o":"m 278 514 q 272 725 276 614 q 296 788 271 761 q 358 817 321 815 q 422 793 394 818 q 450 731 449 768 q 454 521 454 625 q 658 526 568 525 q 721 501 694 526 q 748 440 747 476 q 724 376 749 403 q 661 349 699 350 q 456 343 569 347 q 453 108 456 233 q 425 46 451 71 q 362 22 399 21 q 300 49 325 22 q 275 111 275 75 q 278 336 278 233 q 63 328 126 331 q -1 351 26 326 q -29 413 -28 376 q -6 477 -31 450 q 57 506 19 504 q 278 514 119 507 z "},",":{"ha":357,"x_min":24,"x_max":279,"o":"m 279 72 l 188 -147 q 140 -196 174 -182 q 72 -196 106 -210 q 24 -148 38 -182 q 24 -81 10 -114 l 115 142 q 164 189 129 175 q 232 189 199 203 q 279 140 265 175 q 279 72 293 106 z "},"-":{"ha":426,"x_min":-40,"x_max":356,"o":"m 44 467 l 263 478 q 326 455 299 479 q 355 394 353 431 q 333 330 357 357 q 271 300 308 303 l 53 289 q -10 312 17 288 q -40 373 -37 336 q -17 437 -42 410 q 44 467 7 464 z "},".":{"ha":311,"x_min":63,"x_max":240,"o":"m 214 146 q 227 133 214 146 q 240 83 240 119 q 214 21 240 47 q 151 -6 188 -6 q 89 21 115 -6 q 63 83 63 47 q 89 146 63 119 q 151 172 115 172 q 214 146 188 172 z "},"/":{"ha":511,"x_min":-49,"x_max":435,"o":"m 435 940 q 269 451 360 732 q 118 -4 167 132 q 73 -55 106 -39 q 6 -58 40 -71 q -45 -13 -29 -46 q -49 54 -61 19 q 103 511 0 192 q 268 1001 200 815 q 314 1051 281 1036 q 382 1054 347 1067 q 432 1008 417 1042 q 435 940 447 975 z "},":":{"ha":347,"x_min":90,"x_max":276,"o":"m 250 686 q 263 673 250 686 q 276 624 276 660 q 250 561 276 588 q 188 535 224 535 q 125 561 151 535 q 99 624 99 588 q 125 686 99 660 q 188 713 151 713 q 250 686 224 713 m 242 138 q 255 124 242 138 q 268 75 268 111 q 242 13 268 39 q 179 -14 215 -14 q 117 13 143 -14 q 90 75 90 39 q 117 138 90 111 q 179 164 143 164 q 242 138 215 164 z "},";":{"ha":354,"x_min":24,"x_max":276,"o":"m 276 75 l 188 -139 q 140 -186 174 -172 q 72 -186 106 -200 q 24 -138 38 -172 q 24 -69 10 -104 l 113 144 q 160 192 126 178 q 228 192 194 206 q 276 144 263 178 q 276 75 290 110 m 236 701 q 249 688 236 701 q 263 639 263 675 q 236 576 263 603 q 174 550 210 550 q 111 576 138 550 q 85 639 85 603 q 111 701 85 675 q 174 728 138 728 q 236 701 210 728 z "},"<":{"ha":875,"x_min":78,"x_max":803,"o":"m 767 614 l 672 544 q 558 463 593 486 q 458 399 524 439 q 335 332 392 358 q 297 319 319 325 q 413 254 342 289 q 701 131 492 215 q 749 84 735 118 q 751 16 764 50 q 703 -33 738 -18 q 635 -33 669 -47 q 333 94 415 54 q 160 200 221 151 q 96 271 117 235 q 78 388 60 329 q 204 483 103 467 q 230 488 218 486 q 246 490 242 490 q 253 491 250 490 q 260 493 257 492 q 368 551 310 517 q 458 608 426 586 l 567 686 l 664 758 q 729 774 693 779 q 787 738 765 768 q 803 672 808 708 q 767 614 797 636 z "},"=":{"ha":864,"x_min":-40,"x_max":793,"o":"m 58 610 q 381 608 156 611 q 701 608 593 604 q 765 584 739 610 q 793 522 792 558 q 769 458 794 485 q 707 431 743 432 q 383 431 606 426 q 61 432 158 433 q -1 457 25 432 q -28 519 -28 482 q -4 582 -29 556 q 58 610 21 608 m 57 253 q 669 243 274 232 q 733 219 707 244 q 761 156 760 193 q 737 93 763 119 q 675 65 711 67 q 40 75 268 54 q -19 108 4 79 q -40 172 -43 136 q -8 232 -36 208 q 57 253 21 256 z "},">":{"ha":832,"x_min":-374,"x_max":761,"o":"m 63 742 q 324 613 153 704 q 568 490 493 521 q 579 488 574 489 q 600 486 585 488 l 636 481 q 706 456 679 472 q 761 351 763 419 q 656 215 758 261 q 631 206 646 211 q 586 178 592 178 q 618 200 583 179 l 603 194 q 572 182 578 186 q 449 138 524 157 l 210 36 l 201 33 l 33 -37 l 22 -40 q -249 -151 -211 -137 q -260 -156 -256 -154 l -285 -158 q -318 -153 -301 -158 q -353 -127 -336 -146 q -374 -79 -371 -108 q -357 -18 -376 -46 q -344 -3 -351 -10 q -337 2 -340 0 q -332 6 -335 4 q -327 8 -329 7 q -324 11 -325 10 l -322 11 l -311 17 q -225 56 -289 28 l 249 261 q 385 304 289 278 l 389 304 l 467 338 l 471 339 q 239 456 389 375 q -7 578 75 544 q -54 626 -40 592 q -54 694 -68 660 q -6 742 -40 728 q 63 742 28 756 z "},"?":{"ha":815,"x_min":44,"x_max":742,"o":"m 79 907 q 108 931 83 910 q 160 972 133 953 q 208 1003 186 992 q 386 1053 294 1046 q 564 1026 479 1060 q 706 903 657 989 q 742 699 754 818 q 610 424 728 575 q 517 315 575 381 l 439 228 q 379 197 415 200 q 315 217 343 193 q 283 276 286 240 q 303 342 279 313 q 385 435 321 364 q 469 533 440 496 q 564 718 557 644 q 496 863 576 829 q 400 876 458 881 q 289 844 342 871 q 261 827 274 836 q 229 800 249 818 q 188 765 211 783 q 122 748 158 743 q 63 782 85 753 q 45 848 40 811 q 79 907 50 885 m 424 104 q 437 91 424 104 q 450 42 450 78 q 424 -21 450 6 q 361 -47 397 -47 q 299 -21 325 -47 q 272 42 272 6 q 299 104 272 78 q 361 131 325 131 q 424 104 397 131 z "},"@":{"ha":1151,"x_min":76,"x_max":1075,"o":"m 676 650 q 639 651 660 650 q 627 652 638 651 q 611 653 617 653 q 589 653 594 654 q 508 586 550 639 q 454 476 467 533 q 458 418 444 435 q 519 400 471 401 l 532 419 q 534 424 533 421 q 536 443 535 428 q 543 479 539 457 q 568 549 551 522 q 672 607 606 607 q 744 581 714 607 q 779 524 769 558 q 783 453 786 497 q 779 414 779 418 q 789 406 785 407 q 799 410 793 406 q 872 474 835 424 q 900 569 892 497 q 863 765 913 681 q 723 885 814 850 q 528 890 632 919 q 425 849 447 867 q 406 828 413 839 q 385 792 399 817 q 354 742 371 768 l 325 700 q 298 661 307 675 q 282 632 289 647 q 256 365 235 515 q 363 147 278 211 q 553 117 428 99 q 630 133 590 124 q 721 159 669 143 q 800 182 772 175 q 867 173 835 192 q 908 119 899 154 q 899 51 918 83 q 844 10 881 19 l 775 -11 q 671 -39 719 -26 q 579 -58 622 -51 q 257 6 382 -87 q 79 340 113 114 q 76 528 67 433 q 118 699 86 624 q 144 751 128 725 q 183 808 161 778 q 207 842 206 838 q 222 865 210 844 l 244 906 q 274 947 256 924 q 311 985 293 971 q 478 1060 363 1028 q 642 1080 563 1086 q 792 1048 722 1074 q 918 972 861 1022 q 1013 859 975 922 q 1069 715 1051 796 q 1075 550 1086 635 q 1014 365 1061 429 q 861 243 946 275 q 756 232 813 222 q 656 286 700 242 q 646 274 651 279 q 544 222 603 225 q 317 310 389 217 q 281 515 254 392 q 372 700 303 611 q 531 819 442 789 q 621 831 568 833 l 651 828 l 671 828 q 735 803 708 829 q 763 741 761 778 q 738 678 764 704 q 676 650 713 651 z "},"A":{"ha":969,"x_min":-56,"x_max":893,"o":"m 344 511 l 511 576 l 443 733 q 399 638 401 644 l 344 511 m 244 278 l 111 -31 q 61 -77 96 -64 q -8 -75 26 -90 q -56 -25 -42 -60 q -53 44 -68 10 l 71 331 q 107 414 64 383 l 235 710 q 267 781 243 731 q 303 858 292 831 q 305 867 304 863 q 307 888 306 872 q 310 925 308 904 q 332 997 317 969 q 439 1057 368 1058 q 568 932 539 1053 q 576 894 574 911 q 581 871 579 878 q 585 858 582 864 l 685 625 q 744 572 728 614 q 739 493 761 531 q 893 81 814 303 q 890 11 906 44 q 838 -35 874 -22 q 769 -31 803 -47 q 724 19 736 -15 q 579 410 625 293 l 244 278 z "},"B":{"ha":897,"x_min":-25,"x_max":818,"o":"m 174 853 q 171 747 172 803 q 169 622 169 690 q 168 514 168 553 q 383 583 281 540 q 519 656 469 619 q 568 706 564 686 q 567 713 569 707 q 556 734 565 718 q 531 771 547 750 q 347 850 481 835 q 174 853 281 857 m 667 546 q 799 386 758 482 q 817 188 840 290 q 706 8 794 85 q 376 -82 596 -86 q 85 -42 240 -79 q 65 -44 75 -44 q 3 -19 29 -44 q -25 43 -24 6 q -19 281 -26 133 q -10 508 -11 461 q -1 918 -3 885 q -4 936 -4 926 q 11 988 -4 964 q 45 1023 22 1010 q 94 1035 68 1036 q 119 1029 107 1033 q 368 1026 282 1036 q 669 882 574 1003 q 740 658 767 758 q 667 546 724 599 m 472 429 l 451 419 q 161 332 304 358 l 158 271 q 153 125 153 179 q 381 96 275 97 q 589 142 532 92 q 647 272 653 196 q 564 401 640 347 q 522 417 553 410 q 510 419 517 418 q 497 423 504 421 q 485 425 489 425 l 472 429 z "},"C":{"ha":913,"x_min":-44,"x_max":842,"o":"m 699 776 q 656 813 675 794 q 625 840 636 831 q 600 856 614 849 q 342 824 456 925 q 174 535 236 731 q 132 333 133 410 q 182 197 131 240 q 426 153 253 139 q 485 166 457 154 q 535 190 514 178 q 597 231 556 203 l 672 281 q 740 290 704 299 q 794 250 775 282 q 804 183 813 218 q 764 128 796 147 q 703 89 749 118 q 625 38 657 57 q 542 -1 593 18 q 440 -25 490 -21 q 355 -28 404 -29 q 259 -22 306 -28 q 161 6 213 -15 q 68 61 110 26 q -44 338 -47 157 q 4 588 -43 440 q 224 957 82 831 q 351 1037 283 1010 q 504 1061 419 1064 q 675 1017 589 1058 q 727 985 700 1006 q 780 942 754 964 q 807 918 806 919 q 841 858 836 894 q 823 793 846 822 q 764 759 800 764 q 699 776 728 754 z "},"D":{"ha":949,"x_min":-15,"x_max":875,"o":"m 164 110 q 201 87 182 100 q 233 67 221 74 q 258 57 244 61 q 369 50 288 49 q 558 103 483 51 q 671 242 635 156 q 698 431 707 324 q 633 635 689 538 q 574 711 600 692 q 346 799 526 747 q 174 844 324 806 q 164 110 192 472 m 118 1046 q 256 1007 156 1033 q 394 969 357 981 q 682 853 604 911 q 786 724 736 811 q 875 446 863 593 q 835 174 888 300 q 658 -43 778 39 q 372 -128 539 -125 q 208 -112 263 -129 q 152 -90 182 -106 q 94 -56 122 -74 q 63 -36 65 -37 q 19 15 29 -19 q -15 93 -18 46 q -8 914 15 483 q 1 960 -10 939 q 6 989 1 975 q 51 1040 18 1024 q 118 1046 83 1057 z "},"E":{"ha":843,"x_min":-11,"x_max":772,"o":"m 142 982 q 664 1007 376 1038 q 723 974 700 1003 q 742 908 746 944 q 710 849 739 872 q 644 829 681 826 q 174 807 383 858 q 176 613 176 696 q 410 622 258 618 q 610 628 561 625 q 674 604 647 629 q 703 542 701 579 q 679 478 704 506 q 618 450 654 451 q 415 444 571 449 q 175 435 260 440 q 171 335 174 399 q 167 194 167 251 q 168 136 167 161 q 179 135 174 135 q 354 133 240 135 l 481 133 l 608 133 l 685 133 q 747 107 721 133 q 772 44 772 81 q 746 -19 772 7 q 682 -44 719 -44 l 608 -44 q 481 -44 556 -44 q 353 -43 406 -43 q 176 -42 239 -43 q 118 -40 139 -42 q 97 -39 106 -40 q 86 -37 92 -39 q 75 -36 81 -37 q 42 -18 57 -31 q 4 44 15 4 q -6 92 -3 64 q -11 194 -11 132 q -7 343 -11 256 q -7 914 3 543 q 17 978 -8 951 q 79 1006 43 1004 q 142 982 115 1007 z "},"F":{"ha":863,"x_min":-3,"x_max":792,"o":"m 147 1013 q 714 1028 411 1067 q 773 994 750 1024 q 791 929 796 965 q 757 870 786 893 q 692 853 728 847 q 181 838 417 888 q 189 601 185 729 q 398 615 318 615 q 639 600 478 615 q 698 567 675 596 q 717 501 721 538 q 685 442 714 465 q 619 422 656 419 q 395 438 467 438 q 194 424 324 438 l 206 44 q 181 -19 207 7 q 119 -47 156 -46 q 56 -23 82 -49 q 28 39 29 3 q -3 943 7 753 q 20 1006 -4 979 q 82 1036 44 1033 q 147 1013 119 1038 z "},"G":{"ha":958,"x_min":-81,"x_max":888,"o":"m 743 808 q 708 839 728 821 l 682 864 q 646 890 660 885 q 514 908 603 908 q 228 786 333 908 q 101 460 122 665 q 97 319 94 394 q 115 201 100 233 q 203 114 147 133 q 328 115 254 94 q 476 191 404 138 q 585 304 547 244 q 640 421 603 332 l 643 428 l 536 418 q 224 393 288 397 q 160 415 188 392 q 130 476 132 439 q 151 540 128 513 q 213 571 175 568 q 521 596 308 578 l 681 610 l 732 614 l 747 614 q 751 615 750 615 l 754 615 l 758 615 l 765 615 q 776 614 771 614 q 824 586 804 608 q 850 500 854 553 q 840 450 849 479 q 804 350 829 408 q 735 210 760 250 q 581 49 679 122 q 376 -56 483 -25 q 143 -54 249 -92 q -46 126 19 -10 q -81 313 -76 190 q -76 479 -85 400 q -38 661 -65 575 q 38 826 -11 747 q 152 961 86 904 q 311 1052 218 1018 q 514 1086 404 1086 q 715 1054 639 1086 q 803 994 757 1036 l 831 968 q 854 947 846 954 q 887 888 883 924 q 867 822 890 851 q 808 790 844 793 q 743 808 772 786 z "},"H":{"ha":990,"x_min":4,"x_max":919,"o":"m 901 976 q 915 698 911 842 q 918 349 918 554 q 919 71 918 144 q 894 7 919 33 q 831 -19 868 -19 q 768 6 794 -19 q 742 68 742 32 q 740 432 742 93 q 185 351 529 397 q 193 33 186 176 q 169 -31 194 -4 q 108 -60 144 -58 q 44 -36 71 -61 q 15 25 17 -11 q 8 315 10 168 q 6 669 6 467 q 4 958 6 871 q 30 1022 4 996 q 92 1049 56 1049 q 156 1023 129 1049 q 182 961 182 997 q 183 715 182 875 q 183 531 183 556 q 739 611 525 576 q 724 963 736 799 q 745 1027 721 999 q 806 1058 769 1056 q 870 1037 842 1061 q 901 976 899 1013 z "},"I":{"ha":315,"x_min":67,"x_max":244,"o":"m 244 969 q 244 15 197 544 q 224 -50 247 -22 q 163 -81 200 -78 q 99 -61 126 -85 q 67 -1 71 -37 q 67 989 18 547 q 100 1048 71 1025 q 165 1067 129 1071 q 224 1035 201 1064 q 244 969 247 1006 z "},"J":{"ha":678,"x_min":-29,"x_max":606,"o":"m 582 976 q 606 571 604 794 q 568 157 608 281 q 390 -71 513 -15 q 93 -14 247 -135 q 29 58 61 11 q 17 76 24 65 q 3 96 10 88 q -10 113 -3 104 q -28 178 -33 142 q 5 238 -24 215 q 70 256 33 261 q 129 224 107 251 q 174 160 131 221 q 204 125 192 135 q 317 92 272 71 q 399 210 368 114 q 428 569 431 308 q 407 957 426 785 q 426 1022 403 993 q 485 1055 449 1051 q 550 1035 521 1058 q 582 976 579 1013 z "},"K":{"ha":882,"x_min":13,"x_max":808,"o":"m 297 522 l 375 431 q 444 356 400 401 q 526 281 488 311 q 596 233 558 256 l 683 181 l 769 131 q 808 76 800 111 q 797 9 817 40 q 742 -31 778 -22 q 675 -19 707 -39 q 599 24 653 -6 q 499 83 546 54 q 415 142 451 113 q 219 339 331 208 q 222 46 222 193 q 196 -17 222 10 q 133 -43 169 -43 q 71 -17 97 -43 q 44 46 44 10 q 13 951 44 513 q 34 1017 10 989 q 95 1047 58 1044 q 160 1026 132 1050 q 190 965 188 1001 q 207 676 200 822 q 606 1006 433 850 q 670 1029 633 1031 q 731 1000 707 1028 q 754 935 756 972 q 725 875 753 899 q 297 522 554 719 z "},"L":{"ha":817,"x_min":19,"x_max":744,"o":"m 197 964 q 222 343 199 785 q 228 264 224 318 q 233 183 232 214 q 226 114 235 158 q 232 115 229 114 q 392 132 292 118 q 640 172 521 150 q 707 158 676 179 q 744 101 738 138 q 731 35 751 65 q 674 -3 710 4 q 415 -44 550 -25 q 243 -62 308 -58 q 172 -62 200 -65 q 136 -58 151 -61 q 85 -31 106 -50 q 46 114 32 22 q 51 140 49 128 q 53 156 53 151 l 56 167 q 56 175 56 171 q 50 256 54 203 q 44 335 46 310 q 19 961 21 779 q 45 1025 19 999 q 108 1051 71 1051 q 171 1025 144 1051 q 197 964 197 1000 z "},"M":{"ha":1236,"x_min":-40,"x_max":1158,"o":"m -40 44 q 122 622 42 313 q 133 664 126 636 l 146 708 q 149 724 149 717 q 151 747 150 732 q 153 781 151 763 q 211 910 163 865 q 278 936 240 935 q 342 914 314 936 q 381 861 365 894 q 396 824 388 846 l 404 800 q 486 499 440 711 q 528 308 519 343 q 585 500 550 376 q 675 803 650 732 q 677 815 676 808 q 678 837 678 821 q 683 874 679 853 q 706 944 689 917 q 807 1003 740 1001 q 849 993 829 1003 q 876 974 868 983 l 883 964 q 897 940 890 954 q 914 899 906 925 q 944 797 926 863 q 982 653 954 763 q 1158 67 1078 272 q 1158 -1 1172 33 q 1109 -48 1143 -35 q 1041 -47 1075 -61 q 994 3 1007 -32 q 810 608 908 217 l 806 628 l 756 453 q 660 149 696 243 q 653 124 657 143 q 643 74 646 85 q 633 44 639 58 q 614 7 628 31 q 574 -31 600 -17 q 514 -44 549 -44 q 411 15 446 -44 q 392 86 396 43 q 388 122 389 107 q 388 143 388 138 q 386 154 388 149 q 313 461 361 235 q 290 564 292 556 q 129 -8 211 258 q 86 -60 118 -43 q 19 -67 54 -78 q -34 -24 -17 -56 q -40 44 -51 8 z "},"N":{"ha":1022,"x_min":6,"x_max":951,"o":"m 17 8 q 13 74 15 36 q 9 125 10 111 q 7 163 8 139 q 6 206 6 188 q 6 253 6 225 q 7 319 7 281 q 19 621 10 432 q 24 697 21 647 q 29 769 28 747 q 29 783 31 776 q 25 803 28 789 q 21 836 22 817 q 69 983 10 933 q 123 1008 93 1004 q 173 1007 153 1013 q 210 990 193 1001 q 281 926 243 971 q 314 883 296 908 l 358 822 l 394 772 l 521 600 l 631 443 q 746 260 697 343 q 747 283 747 272 q 774 963 763 501 q 801 1024 775 999 q 865 1049 828 1050 q 927 1021 901 1047 q 951 957 953 994 q 925 272 940 493 q 921 181 924 261 q 913 86 918 119 q 878 -10 903 24 q 813 -55 853 -44 q 735 -49 774 -65 q 636 67 667 -22 q 625 100 629 85 q 618 123 621 115 q 611 136 615 131 q 497 322 564 222 l 385 486 l 253 667 l 206 733 q 202 694 204 719 q 199 649 200 669 q 197 610 199 629 q 185 317 186 425 q 183 242 183 268 q 184 189 183 217 q 185 149 185 161 q 189 94 186 136 q 194 19 192 53 q 172 -44 196 -17 q 111 -74 147 -72 q 47 -52 75 -76 q 17 8 19 -28 z "},"O":{"ha":1090,"x_min":0,"x_max":1018,"o":"m 535 888 q 489 874 513 879 q 453 865 465 868 q 426 853 440 861 q 251 671 317 788 q 178 418 186 554 q 207 186 167 247 q 333 92 250 122 q 494 85 417 63 q 631 170 560 101 q 756 339 701 239 q 831 536 811 439 q 832 699 851 633 q 808 756 822 732 q 773 799 794 781 q 732 830 751 818 q 676 853 713 842 q 613 870 639 864 q 535 888 588 876 m 457 1050 q 532 1069 490 1078 q 581 1058 544 1067 l 636 1047 q 689 1035 653 1044 q 744 1017 725 1025 q 797 995 764 1010 q 849 966 829 981 q 895 928 869 951 q 938 881 921 906 q 973 822 956 856 q 1001 749 990 788 q 1017 587 1025 675 q 983 417 1010 499 q 911 254 956 335 q 747 36 842 129 q 542 -87 650 -57 q 272 -75 411 -122 q 60 89 136 -26 q 0 429 -14 201 q 97 761 11 606 q 338 1006 185 915 q 457 1050 375 1028 z "},"P":{"ha":875,"x_min":-10,"x_max":799,"o":"m 200 481 q 260 485 215 482 q 319 489 306 488 q 363 494 333 490 q 415 504 393 497 q 463 521 438 511 q 578 593 538 553 q 625 671 618 633 q 510 835 639 754 q 185 897 401 900 q 190 783 186 858 q 196 674 194 708 q 200 481 200 563 m 79 1072 q 206 1075 157 1075 q 331 1069 254 1075 q 475 1042 408 1064 q 601 985 542 1021 q 764 828 711 917 q 799 639 817 739 q 711 475 783 547 q 529 357 639 403 q 435 328 485 339 q 360 314 383 317 q 269 308 338 311 q 196 303 201 304 l 193 303 q 181 157 190 261 q 168 -4 171 53 q 138 -65 165 -40 q 74 -87 110 -89 q 13 -57 38 -85 q -10 7 -11 -29 q 6 188 -6 64 q 19 379 17 313 q 18 665 26 493 l 11 790 q 6 942 7 889 q -6 979 -4 960 q 18 1044 -7 1017 q 79 1072 43 1071 z "},"Q":{"ha":1100,"x_min":-7,"x_max":1014,"o":"m 613 -57 q 563 -67 592 -62 q 393 -74 457 -83 q 228 -19 300 -60 q 112 78 156 21 q 40 203 68 136 q 1 347 11 271 q -7 492 -8 422 q 6 629 -6 560 q 53 800 24 746 q 93 860 71 832 q 135 910 115 889 q 185 951 156 932 q 236 981 215 969 q 292 1005 257 993 q 345 1022 326 1017 q 403 1036 364 1028 l 456 1046 q 508 1054 469 1049 l 513 1054 q 569 1057 540 1065 q 629 1042 583 1053 q 694 1024 675 1031 q 749 1001 713 1017 q 815 961 785 985 q 876 904 844 938 q 1010 649 972 801 q 1013 340 1047 496 q 878 82 979 183 q 788 10 836 39 l 886 -104 q 908 -169 910 -132 q 878 -230 906 -206 q 815 -252 851 -254 q 753 -224 778 -250 q 613 -57 676 -137 m 536 879 q 322 826 393 856 q 211 717 251 796 q 181 601 194 688 q 170 423 163 508 q 203 271 178 338 q 285 159 229 204 q 421 101 340 114 q 496 103 450 97 l 424 214 q 413 281 404 246 q 452 336 421 317 q 519 347 483 356 q 574 308 554 339 q 678 151 625 225 q 753 207 718 172 q 841 383 818 274 q 838 602 864 492 q 746 782 813 713 q 715 811 731 799 l 692 831 q 660 846 682 838 q 631 856 638 854 q 590 867 625 858 q 543 881 556 876 q 536 879 540 879 z "},"R":{"ha":1007,"x_min":-10,"x_max":936,"o":"m 72 1075 q 107 1078 83 1075 q 245 1087 194 1085 q 379 1086 296 1089 q 535 1066 463 1083 q 674 1015 607 1049 q 806 917 751 976 q 876 782 860 857 q 864 625 894 701 q 763 482 833 549 q 606 397 718 440 q 915 118 761 306 q 935 52 939 89 q 903 -8 932 15 q 838 -27 875 -31 q 779 4 801 -24 q 343 313 561 269 q 304 317 324 317 q 206 304 240 308 q 203 303 204 304 q 197 42 201 183 q 169 -20 196 6 q 106 -44 143 -46 q 44 -17 69 -43 q 19 47 18 10 q 11 928 35 569 q -10 979 -7 950 q 12 1044 -12 1015 q 72 1075 36 1072 m 213 496 l 247 496 q 292 494 272 496 q 408 515 365 504 q 522 556 451 526 l 564 572 l 599 586 q 621 597 608 590 q 643 613 633 604 q 703 743 717 681 q 593 857 689 810 q 404 907 511 897 q 190 906 296 917 q 204 496 203 715 l 213 496 z "},"S":{"ha":933,"x_min":-53,"x_max":858,"o":"m 688 789 q 565 856 613 835 q 457 893 513 881 q 351 894 401 906 q 254 847 301 882 q 176 767 204 810 q 160 715 153 731 q 215 694 171 704 q 394 672 238 689 q 480 662 446 667 q 568 643 514 657 q 661 610 622 629 q 742 558 700 592 q 810 482 783 525 q 858 347 850 415 q 847 221 867 278 q 788 113 828 164 q 654 -1 735 44 q 488 -62 574 -47 q 179 -31 297 -96 q 142 -6 161 -19 q 108 20 122 8 q 72 53 93 32 l 39 86 l 6 124 q -28 158 -19 150 q -53 222 -54 185 q -25 284 -51 258 q 38 308 1 310 q 100 281 75 307 q 132 247 111 269 q 161 215 153 224 l 185 192 q 208 169 200 176 l 226 153 q 247 137 238 143 q 265 125 256 131 q 457 113 329 90 q 565 152 513 122 q 649 222 617 182 q 660 388 713 303 q 562 460 629 436 q 376 496 494 483 q 178 521 215 513 q 4 632 47 549 q 28 864 -54 740 q 149 989 74 933 q 289 1060 215 1039 q 423 1078 361 1081 q 555 1051 485 1075 q 673 1001 625 1026 q 782 939 721 976 q 821 884 813 919 q 810 817 829 849 q 755 778 790 786 q 688 789 719 769 z "},"T":{"ha":932,"x_min":-64,"x_max":860,"o":"m 24 1018 q 269 1013 122 1019 q 532 1006 415 1006 q 757 1025 649 1007 q 824 1010 793 1031 q 860 953 854 989 q 844 886 865 917 q 788 850 824 856 q 467 829 651 826 q 479 447 479 463 q 474 238 479 386 q 472 8 469 89 q 448 -56 474 -29 q 385 -83 422 -82 q 322 -59 349 -85 q 294 3 296 -33 q 297 235 292 85 q 301 447 301 385 q 299 569 301 504 q 294 712 297 633 q 289 835 290 790 q 26 840 103 842 q -36 865 -10 840 q -63 927 -62 890 q -39 990 -64 964 q 24 1018 -14 1017 z "},"U":{"ha":971,"x_min":-19,"x_max":899,"o":"m 160 911 q 158 740 160 883 q 160 522 157 600 q 208 208 168 272 q 351 99 260 126 q 531 105 443 71 q 664 222 619 139 q 694 298 682 257 q 713 392 707 339 q 721 485 718 446 q 720 592 724 524 q 715 692 717 661 q 707 801 714 722 q 699 901 700 876 q 720 967 696 939 q 781 997 744 994 q 846 976 818 1000 q 876 915 874 951 q 884 823 878 894 q 893 711 890 751 q 899 599 896 671 q 898 474 901 526 q 887 359 894 422 q 862 241 879 296 q 819 139 844 186 q 699 -4 775 53 q 535 -78 622 -61 q 358 -83 447 -96 q 189 -19 269 -71 q 58 114 110 32 q -17 517 -7 218 q -19 736 -19 601 q -18 908 -18 879 q 7 971 -18 944 q 69 998 32 997 q 132 974 106 999 q 160 911 158 949 z "},"V":{"ha":847,"x_min":-36,"x_max":771,"o":"m 389 119 q 390 118 389 118 l 389 119 m 133 1007 l 314 385 l 353 242 l 356 231 q 385 304 367 257 q 508 665 435 429 q 604 967 582 901 q 649 1017 615 1001 q 717 1022 682 1033 q 767 976 751 1010 q 771 908 783 943 l 675 606 q 551 240 600 365 q 474 74 504 122 q 403 -1 440 21 q 261 4 331 -44 q 236 31 246 14 q 229 43 232 36 l 222 60 l 211 96 q 182 193 200 126 l 142 338 l -36 957 q -29 1025 -47 993 q 24 1067 -11 1057 q 92 1060 60 1078 q 133 1007 124 1042 z "},"W":{"ha":1338,"x_min":-33,"x_max":1261,"o":"m 585 675 l 565 614 q 471 313 486 356 q 403 138 422 174 q 338 58 374 82 q 261 41 299 36 q 193 72 224 46 q 131 204 142 117 q 126 247 128 226 q 122 283 125 271 q 77 499 103 364 q 27 737 51 633 q -33 932 3 840 q -33 999 -47 965 q 16 1047 -18 1033 q 84 1045 50 1060 q 131 996 118 1031 q 197 788 169 900 q 251 536 225 676 q 292 336 278 396 l 304 371 q 396 665 317 407 l 446 831 l 464 885 q 469 903 468 896 q 474 913 472 908 q 478 921 475 917 q 508 953 493 943 q 661 954 590 1006 q 728 856 704 924 q 743 797 736 832 q 756 726 750 763 q 764 683 763 690 q 869 304 806 479 q 972 619 910 414 q 1094 999 1053 885 q 1141 1049 1107 1033 q 1209 1051 1175 1064 q 1258 1005 1243 1039 q 1261 938 1274 971 q 1142 568 1221 829 q 1014 189 1064 314 q 1008 164 1013 183 q 999 113 1000 121 q 871 -10 971 -6 q 818 0 842 -11 q 781 25 794 11 q 758 60 768 39 q 744 90 747 81 q 739 111 742 99 q 729 161 738 119 q 725 186 726 181 q 589 647 642 396 q 585 675 586 661 z "},"X":{"ha":917,"x_min":-54,"x_max":846,"o":"m 119 1043 q 431 686 318 864 l 444 664 l 676 965 q 735 998 699 993 q 801 980 772 1003 q 834 920 829 957 q 815 854 839 883 l 538 494 q 575 425 558 454 q 825 71 683 242 q 845 6 849 42 q 813 -54 842 -31 q 749 -74 785 -78 q 689 -43 713 -71 q 422 336 538 139 l 419 340 q 101 -51 239 107 q 41 -82 78 -79 q -24 -60 4 -85 q -54 1 -51 -36 q -32 65 -57 38 q 326 511 117 238 q 281 592 303 557 q 0 913 181 749 q -28 972 -26 936 q -6 1037 -31 1010 q 55 1066 18 1064 q 119 1043 92 1068 z "},"Y":{"ha":899,"x_min":-24,"x_max":826,"o":"m 561 858 q 563 861 561 860 q 569 882 564 872 l 575 893 l 588 911 l 667 1022 q 724 1058 688 1051 q 790 1043 760 1064 q 826 986 819 1022 q 811 919 832 950 l 735 811 q 726 790 732 803 q 657 665 711 760 q 211 -37 406 233 q 153 -74 189 -68 q 87 -58 117 -79 q 51 0 57 -36 q 67 65 46 36 q 289 397 181 225 l -15 917 q -23 984 -33 949 q 19 1038 -12 1019 q 87 1045 51 1056 q 140 1003 122 1035 l 394 568 l 504 754 q 561 858 547 829 m 678 760 l 679 761 l 681 761 q 678 760 679 761 z "},"Z":{"ha":883,"x_min":-62,"x_max":813,"o":"m 10 1008 l 89 1022 q 149 1032 136 1031 q 195 1038 163 1033 q 258 1043 228 1042 q 340 1047 289 1044 q 428 1049 371 1049 l 499 1049 q 512 1050 506 1049 q 532 1055 518 1051 q 564 1061 546 1058 q 710 1028 656 1078 q 742 879 772 972 q 704 801 732 851 q 664 747 689 775 q 610 692 639 718 q 581 663 582 665 l 499 576 l 411 483 l 333 399 l 253 303 q 165 186 206 244 l 143 154 q 169 153 160 153 q 317 153 222 147 q 488 161 442 163 q 728 149 489 161 q 790 119 765 146 q 812 55 814 92 q 783 -6 810 18 q 719 -29 756 -31 q 644 -24 692 -28 q 558 -19 597 -21 q 485 -17 519 -17 q 329 -24 446 -15 q 150 -25 217 -32 q 121 -24 143 -24 q 72 -21 90 -24 q -57 65 -26 -11 q -58 146 -72 101 q -39 194 -53 168 q 19 288 -19 233 q 114 414 58 344 l 197 511 l 276 600 l 367 697 l 450 785 l 503 835 q 542 875 531 861 q 501 871 517 871 l 425 871 q 349 869 363 871 q 272 867 299 868 q 216 862 246 865 q 175 856 186 858 l 117 847 q 40 833 71 839 q -27 849 3 828 q -62 906 -57 869 q -47 973 -68 943 q 10 1008 -26 1003 z "},"[":{"ha":451,"x_min":7,"x_max":381,"o":"m 296 936 q 262 938 282 936 q 222 942 242 939 l 204 944 l 200 944 l 200 940 q 189 864 193 913 q 186 719 188 849 q 185 313 183 535 q 189 67 186 165 q 192 -14 190 11 q 193 -28 192 -24 q 225 -58 203 -40 l 264 -86 q 308 -122 290 -106 q 338 -183 336 -147 q 314 -247 339 -219 q 253 -276 289 -275 q 189 -253 217 -278 q 158 -229 179 -244 l 118 -200 q 29 -100 56 -151 q 18 -58 21 -83 q 15 -26 15 -46 q 11 61 13 4 q 7 311 8 167 q 8 722 7 558 q 13 876 10 849 q 26 982 17 939 q 86 1089 44 1057 q 219 1121 138 1128 q 251 1117 239 1119 q 272 1115 265 1115 q 288 1114 279 1114 q 352 1090 325 1115 q 381 1028 379 1065 q 357 965 382 992 q 296 936 332 938 z "},"\\":{"ha":519,"x_min":-131,"x_max":446,"o":"m 36 1013 l 161 683 q 285 386 208 560 q 438 76 361 213 q 445 9 456 44 q 403 -44 435 -26 q 335 -52 371 -62 q 282 -10 300 -42 q 123 314 203 133 q -6 618 43 494 l -131 951 q -128 1019 -143 986 q -78 1065 -112 1053 q -10 1063 -43 1078 q 36 1013 24 1047 z "},"]":{"ha":397,"x_min":-79,"x_max":325,"o":"m 7 1088 q 33 1090 17 1088 l 69 1094 q 175 1088 131 1101 q 258 1040 219 1074 q 313 960 296 1006 q 325 846 329 913 q 324 822 325 838 q 322 804 322 806 q 321 772 321 785 q 313 457 324 663 q 297 151 299 199 q 297 6 294 75 q 299 -4 297 0 q 303 -22 300 -8 q 313 -53 307 -35 q 285 -199 333 -143 q 144 -246 236 -254 q 113 -242 126 -244 q 93 -240 99 -240 q 81 -240 88 -239 q 16 -219 44 -243 q -15 -158 -12 -194 q 6 -94 -18 -122 q 67 -62 31 -65 q 132 -67 89 -61 q 119 0 121 -25 q 119 157 117 75 q 136 467 121 204 q 143 769 146 650 q 144 818 143 789 q 147 835 146 821 q 149 857 147 849 q 146 899 150 886 q 122 918 142 913 q 90 918 114 921 q 79 917 85 918 q 67 915 74 917 q 57 914 60 914 q 13 910 31 911 q -51 934 -25 908 q -79 997 -78 960 q -55 1060 -81 1033 q 7 1088 -29 1086 z "},"^":{"ha":678,"x_min":24,"x_max":604,"o":"m 35 651 q 175 874 153 842 q 235 942 208 918 q 338 976 283 982 q 428 925 388 971 q 478 854 450 900 q 532 753 493 828 q 596 636 571 679 q 603 569 614 604 q 561 515 593 533 q 494 508 529 497 q 440 550 458 518 l 378 667 l 325 764 l 321 771 l 319 771 q 185 557 300 743 q 130 518 165 526 q 63 529 94 510 q 24 584 32 549 q 35 651 15 619 z "},"_":{"ha":819,"x_min":-69,"x_max":749,"o":"m 17 -19 q 182 -19 51 -18 q 335 -15 281 -21 l 368 -12 l 369 -11 q 385 -1 376 -6 q 397 3 393 3 l 401 4 l 410 7 l 421 8 l 426 8 l 447 8 l 496 11 l 656 18 q 720 -6 693 19 q 749 -67 747 -31 q 725 -131 750 -104 q 664 -160 700 -158 l 633 -161 l 625 -164 q 542 -176 608 -169 q 349 -193 476 -182 q 181 -197 283 -197 q 22 -197 58 -196 q -42 -173 -15 -199 q -69 -110 -68 -147 q -45 -47 -71 -74 q 17 -19 -19 -21 z "},"`":{"ha":376,"x_min":-44,"x_max":306,"o":"m 107 1046 l 279 875 q 306 813 306 850 q 280 750 306 776 q 217 724 254 724 q 154 750 181 724 l -18 921 q -44 983 -44 946 q -19 1046 -44 1019 q 44 1072 7 1072 q 107 1046 81 1072 z "},"a":{"ha":722,"x_min":-42,"x_max":644,"o":"m 422 157 q 371 524 389 296 q 317 540 335 536 q 280 545 300 544 q 242 538 260 546 q 174 467 206 522 q 135 332 143 411 q 145 194 126 253 q 196 113 164 135 q 307 103 240 83 q 422 157 351 117 m 542 618 q 558 408 554 451 q 589 231 567 338 q 644 44 611 124 q 644 -24 658 10 q 597 -72 631 -58 q 528 -72 563 -86 q 481 -25 494 -58 l 476 -15 q 358 -67 411 -51 q 99 -35 211 -110 q -21 130 11 22 q -42 351 -53 238 q -10 488 -33 422 q 60 615 13 554 q 172 701 108 675 q 424 694 276 744 q 446 700 435 699 q 510 678 482 703 q 542 618 539 654 z "},"b":{"ha":800,"x_min":-7,"x_max":717,"o":"m 172 392 q 171 206 171 300 q 190 197 182 201 l 236 169 l 269 150 q 293 139 281 144 q 379 132 324 126 q 521 210 474 140 q 544 379 568 281 q 515 460 528 447 q 354 489 476 503 q 263 468 286 481 q 241 453 250 461 q 215 430 232 446 q 178 396 199 414 q 172 392 175 393 m 169 3 q 140 -49 164 -28 q 82 -71 115 -71 q 19 -44 46 -71 q -7 18 -7 -18 q 4 989 -7 557 q 32 1051 6 1025 q 95 1075 58 1076 q 158 1047 132 1074 q 182 983 183 1021 q 175 622 178 808 q 182 626 178 625 q 332 664 233 653 q 646 582 546 689 l 661 564 q 674 544 668 554 l 683 525 q 693 503 689 515 q 700 485 697 492 q 706 466 703 478 q 710 449 708 454 q 714 433 711 444 q 717 421 717 422 q 714 208 743 310 q 601 35 685 106 q 396 -46 517 -35 q 225 -25 296 -54 q 169 3 203 -15 z "},"c":{"ha":674,"x_min":-28,"x_max":601,"o":"m 461 404 l 444 417 l 422 435 q 404 449 411 444 q 349 488 371 475 q 269 510 300 517 q 193 436 228 500 q 150 269 154 361 q 179 136 147 182 q 254 110 203 103 q 325 139 281 114 l 372 165 q 428 196 404 185 q 496 199 461 211 q 546 153 531 186 q 549 85 561 119 q 503 35 536 50 q 461 13 486 28 l 411 -17 q 279 -65 339 -57 q 138 -51 201 -78 q 33 35 74 -24 q -28 276 -32 129 q 38 519 -22 408 q 228 682 110 654 q 439 640 329 706 q 513 590 471 622 q 535 572 515 588 q 567 549 556 556 q 601 490 596 526 q 585 424 607 454 q 528 389 564 394 q 461 404 492 383 z "},"d":{"ha":736,"x_min":-60,"x_max":665,"o":"m 482 197 q 472 424 481 240 q 396 474 410 467 q 300 485 360 492 q 175 408 226 478 q 118 249 122 340 q 153 125 114 167 q 281 103 193 83 q 482 197 338 114 m 635 971 q 649 443 635 756 q 665 40 664 99 q 641 -24 667 3 q 579 -51 615 -50 q 529 -37 551 -51 q 496 1 507 -24 q 317 -72 389 -57 q 25 3 132 -110 q -60 256 -67 99 q -33 389 -57 322 q 30 515 -11 456 q 137 614 71 574 q 283 663 203 654 q 463 639 386 672 q 457 974 457 790 q 483 1035 457 1010 q 547 1061 510 1061 q 609 1035 583 1061 q 635 971 635 1008 z "},"e":{"ha":775,"x_min":7,"x_max":703,"o":"m 213 392 q 483 501 344 453 q 324 528 397 568 q 213 392 254 490 m 668 393 q 622 361 650 369 q 196 186 400 290 q 201 172 199 178 q 347 114 236 103 q 386 119 369 115 q 422 135 403 124 l 450 153 q 490 181 461 158 l 536 217 q 603 232 567 238 q 660 197 639 226 q 676 131 682 167 q 642 72 671 94 q 601 42 633 67 q 551 6 568 17 q 503 -23 535 -6 q 438 -50 471 -40 q 364 -64 404 -60 q 167 -33 250 -75 q 42 93 83 8 q 7 256 7 165 q 35 422 7 347 q 115 576 63 506 q 239 685 167 646 q 414 719 318 731 q 599 638 508 708 q 658 565 631 613 l 675 536 q 688 517 683 524 q 703 451 708 486 q 668 393 697 415 z "},"f":{"ha":532,"x_min":-97,"x_max":461,"o":"m 372 860 q 289 868 367 860 q 271 869 276 869 q 242 785 253 842 q 228 674 232 738 l 279 681 q 346 664 317 686 q 380 605 375 642 q 363 539 385 568 q 304 506 340 510 l 222 493 q 228 333 224 415 q 238 169 232 251 q 244 78 243 88 q 222 13 246 40 q 160 -16 197 -14 q 97 6 124 -18 q 67 67 69 31 q 61 156 67 78 q 51 313 56 233 q 46 468 47 393 l 3 463 q -62 478 -33 457 q -97 537 -92 500 q -81 603 -103 574 q -22 638 -60 632 l 47 647 q 67 818 53 747 q 189 1028 99 981 q 308 1044 238 1053 q 337 1041 324 1043 q 357 1038 350 1039 q 372 1038 364 1038 q 435 1011 408 1038 q 461 949 461 985 q 435 886 461 913 q 372 860 408 860 z "},"g":{"ha":764,"x_min":13,"x_max":693,"o":"m 514 313 q 504 553 514 403 q 363 548 413 557 q 272 501 313 539 q 232 431 253 482 q 206 324 211 381 q 211 233 200 264 q 239 193 222 201 q 253 192 244 193 q 290 199 263 192 q 349 222 317 207 q 410 252 379 236 q 472 288 440 268 l 513 311 l 514 313 m 676 633 q 681 567 676 618 q 687 478 685 517 q 691 385 689 439 q 692 276 693 331 q 688 171 692 221 q 638 -87 676 17 q 472 -279 583 -229 q 261 -301 410 -308 q 197 -297 229 -300 q 133 -293 163 -296 q 96 -290 104 -290 q 34 -260 58 -287 q 13 -195 10 -232 q 43 -134 15 -158 q 107 -112 71 -110 q 144 -116 115 -114 q 205 -121 172 -118 q 268 -125 238 -124 q 400 -118 375 -129 q 472 -24 443 -97 q 501 101 492 28 q 422 60 457 76 q 164 32 260 -12 q 87 92 118 54 q 44 172 56 131 q 28 260 32 214 q 29 342 24 306 q 70 503 38 424 q 150 629 103 583 q 203 671 174 653 q 256 700 232 689 q 314 719 281 711 q 369 729 347 726 q 426 733 390 732 q 478 733 461 733 q 529 730 494 732 q 572 728 564 728 q 621 710 600 726 q 660 679 644 700 q 676 633 675 658 z "},"h":{"ha":763,"x_min":10,"x_max":690,"o":"m 210 414 q 201 72 201 113 q 175 10 201 36 q 113 -17 149 -17 q 50 10 76 -17 q 24 72 24 36 q 31 353 24 158 q 34 686 38 549 q 10 950 31 824 q 26 1016 4 986 q 83 1051 47 1046 q 149 1035 119 1057 q 185 978 179 1014 q 211 681 207 847 q 432 775 326 776 q 573 716 515 774 q 658 560 631 658 q 664 379 681 479 q 653 257 650 289 q 660 197 654 228 q 675 125 665 167 q 690 54 685 83 q 676 -13 697 17 q 619 -50 656 -43 q 552 -36 582 -57 q 515 21 522 -15 q 503 83 513 39 q 485 168 493 128 q 475 243 478 208 q 489 407 471 293 q 486 513 499 469 q 471 556 479 538 q 457 581 463 574 q 444 593 451 589 q 435 597 436 597 l 429 597 q 299 521 381 599 q 271 493 283 508 l 242 456 l 210 414 z "},"i":{"ha":342,"x_min":54,"x_max":271,"o":"m 253 597 q 249 426 251 543 q 242 219 246 308 q 232 49 239 131 q 200 -12 228 11 q 135 -33 172 -36 q 75 -1 99 -29 q 54 63 51 26 q 64 233 61 160 q 71 433 68 319 l 75 603 q 103 665 76 640 q 167 689 131 690 q 229 660 204 688 q 253 597 254 633 m 244 942 q 258 928 244 942 q 271 879 271 915 q 244 817 271 843 q 182 790 218 790 q 119 817 146 790 q 93 879 93 843 q 119 942 93 915 q 182 968 146 968 q 244 942 218 968 z "},"j":{"ha":324,"x_min":-169,"x_max":251,"o":"m 215 604 q 226 496 222 556 q 233 396 231 436 q 238 283 235 356 q 242 179 240 210 q 243 156 242 176 q 246 104 244 135 q 249 47 247 79 q 251 -40 251 -7 q 250 -108 253 -90 q 175 -272 226 -221 q 58 -319 126 -322 q -65 -269 -1 -317 q -135 -176 -108 -239 q -146 -150 -140 -162 q -154 -130 -151 -137 q -161 -115 -157 -122 q -169 -48 -179 -83 q -126 6 -158 -12 q -59 13 -94 24 q -6 -29 -24 3 q 28 -106 -4 -33 l 40 -128 q 56 -137 49 -133 q 75 -75 67 -115 l 75 -69 q 74 -44 75 -57 q 71 39 74 -14 q 68 96 69 65 q 65 147 67 126 q 64 171 64 168 l 60 272 q 56 381 57 342 q 50 477 54 419 q 40 585 46 535 q 58 649 36 621 q 117 682 81 678 q 183 664 154 686 q 215 604 211 642 m 181 906 q 194 892 181 906 q 207 843 207 879 q 181 781 207 807 q 118 754 154 754 q 56 781 82 754 q 29 843 29 807 q 56 906 29 879 q 118 932 82 932 q 181 906 154 932 z "},"k":{"ha":651,"x_min":19,"x_max":579,"o":"m 197 940 q 203 521 203 764 l 406 701 q 469 725 433 726 q 531 696 506 724 q 554 632 556 668 q 525 571 553 596 l 354 418 l 567 85 q 578 18 586 54 q 540 -37 571 -18 q 472 -49 508 -57 q 417 -10 436 -42 l 222 294 l 201 274 l 201 44 q 175 -18 201 8 q 113 -44 149 -44 q 50 -18 76 -44 q 24 44 24 8 q 25 318 24 115 q 25 660 26 521 q 19 935 24 800 q 43 997 18 971 q 105 1026 68 1025 q 169 1003 142 1028 q 197 940 196 978 z "},"l":{"ha":285,"x_min":14,"x_max":214,"o":"m 189 969 q 200 840 197 906 q 201 730 203 774 q 197 613 200 686 q 194 499 194 539 q 214 36 192 324 q 193 -28 217 0 q 133 -60 169 -57 q 67 -39 96 -62 q 36 22 39 -15 q 17 501 14 315 l 19 621 q 24 733 22 693 q 23 831 25 772 q 14 947 21 890 q 31 1013 8 985 q 91 1047 54 1042 q 156 1028 128 1051 q 189 969 185 1006 z "},"m":{"ha":1060,"x_min":-11,"x_max":988,"o":"m 794 558 q 692 531 769 567 q 666 515 678 524 q 635 491 654 507 q 599 461 617 475 q 593 329 599 401 q 568 54 586 222 q 535 -5 564 18 q 469 -24 506 -28 q 410 8 433 -21 q 390 74 388 38 q 417 340 410 239 q 421 500 422 439 q 418 546 421 528 q 389 544 406 549 l 381 540 q 364 529 374 536 q 300 482 338 513 l 188 385 l 185 382 q 167 15 178 160 q 135 -46 163 -22 q 70 -66 107 -69 q 10 -35 33 -62 q -11 29 -14 -7 q -1 183 -6 107 q 5 317 3 267 q 8 478 7 368 q 13 619 11 583 q 40 681 14 656 q 104 706 67 707 q 164 680 139 704 q 190 621 189 656 q 267 678 233 657 q 356 719 317 711 q 417 724 383 722 q 493 708 451 725 q 561 658 535 692 q 617 692 592 681 q 856 725 761 760 q 979 568 953 689 q 988 477 988 531 q 985 393 988 424 q 974 300 982 363 q 965 236 967 238 l 940 17 q 908 -43 936 -21 q 842 -61 879 -65 q 783 -28 806 -57 q 765 36 761 0 l 790 256 q 799 328 792 272 q 808 408 806 385 q 810 469 810 432 q 806 532 811 507 q 794 558 801 553 z "},"n":{"ha":743,"x_min":-39,"x_max":672,"o":"m 449 606 l 438 606 q 374 596 429 606 q 263 554 313 586 q 235 533 247 544 q 203 499 222 521 q 164 460 183 478 q 167 50 176 307 q 138 -12 165 13 q 74 -36 111 -37 q 13 -8 38 -35 q -11 56 -12 19 q -8 349 -3 196 q -39 629 -12 501 q -25 696 -46 665 q 31 735 -4 726 q 92 724 64 740 q 132 678 121 708 q 168 704 151 694 q 343 771 249 754 q 429 783 410 782 q 554 749 504 786 q 633 617 610 707 q 651 471 647 560 q 653 333 654 415 q 653 239 651 254 q 657 174 654 208 q 664 100 660 140 l 672 35 q 651 -30 675 -1 q 592 -62 628 -58 q 527 -42 556 -65 q 494 18 499 -18 q 475 231 475 229 q 475 336 474 251 q 475 463 476 417 q 461 572 471 532 q 449 606 456 594 z "},"o":{"ha":749,"x_min":-8,"x_max":676,"o":"m 329 528 q 303 521 318 524 q 289 517 303 519 l 269 513 q 238 500 246 506 q 178 388 196 464 q 178 229 160 313 q 238 119 196 154 q 336 101 276 88 q 438 173 393 115 q 496 308 482 231 q 484 442 508 386 q 404 519 460 499 q 361 526 390 525 q 329 528 356 526 m 329 704 l 346 704 l 368 704 q 468 686 428 701 q 580 613 533 660 q 647 512 626 567 q 676 396 668 457 q 671 279 683 335 q 573 58 650 158 q 378 -71 496 -42 q 124 -18 231 -107 q 6 189 36 56 q -8 307 -8 246 q 5 428 -8 368 q 49 544 18 489 q 126 636 79 599 q 224 683 163 667 l 233 686 q 300 707 263 710 q 311 706 306 706 q 329 704 321 706 z "},"p":{"ha":751,"x_min":6,"x_max":681,"o":"m 182 197 q 244 169 214 185 q 294 147 275 154 q 333 136 313 139 q 419 154 363 132 q 493 190 485 178 q 503 282 503 206 q 485 398 503 349 q 439 471 467 447 q 278 464 382 519 q 257 449 265 457 q 233 423 249 440 q 193 385 217 406 l 182 376 l 182 197 m 181 613 q 194 619 188 617 q 389 671 294 675 q 556 606 483 667 q 649 465 618 550 q 681 282 681 379 l 681 268 l 681 250 q 680 231 681 244 q 678 209 679 218 q 676 187 678 200 q 671 163 674 174 q 664 139 668 151 q 653 115 660 126 q 640 93 647 103 q 626 75 635 83 l 611 58 q 593 43 603 50 l 575 31 q 558 19 568 25 q 540 11 547 14 q 523 3 533 8 q 508 -3 513 -1 l 494 -8 q 483 -12 485 -11 q 308 -39 383 -50 q 185 1 260 -32 q 197 -304 188 -161 q 174 -368 199 -340 q 114 -398 150 -396 q 50 -376 78 -400 q 19 -315 22 -351 q 6 594 6 -94 q 32 656 6 631 q 96 682 58 682 q 151 662 126 682 q 181 613 175 642 z "},"q":{"ha":731,"x_min":-43,"x_max":660,"o":"m 471 222 q 476 461 472 351 q 342 500 376 499 q 222 428 288 501 q 164 328 190 390 q 135 206 138 264 q 150 125 132 151 q 218 94 168 99 q 343 138 260 89 q 421 188 375 157 l 471 222 m 660 571 q 651 338 654 465 q 648 133 649 211 q 648 -109 647 54 q 649 -325 649 -272 q 622 -387 649 -361 q 560 -414 596 -414 q 497 -387 524 -414 q 471 -325 471 -361 l 471 -156 q 469 7 471 -43 l 432 -15 q 199 -83 299 -93 q 4 24 68 -69 q -43 214 -49 101 q 0 394 -39 303 q 89 544 38 485 q 347 678 208 682 q 508 639 410 675 q 576 665 536 667 q 637 635 613 663 q 660 571 661 608 z "},"r":{"ha":578,"x_min":13,"x_max":503,"o":"m 199 365 q 194 180 197 300 q 190 24 190 60 q 163 -39 189 -14 q 99 -63 136 -64 q 38 -36 63 -62 q 13 26 13 -10 q 17 178 14 74 q 21 340 19 282 q 20 483 22 397 q 13 643 18 569 q 34 708 10 679 q 94 739 58 736 q 159 717 131 742 q 190 657 188 693 q 192 628 192 643 q 256 658 210 639 q 379 714 321 686 q 447 719 413 731 q 498 674 482 707 q 502 606 514 640 q 457 556 490 571 q 325 494 393 524 q 283 476 286 478 q 268 457 281 475 l 199 365 z "},"s":{"ha":667,"x_min":-56,"x_max":593,"o":"m 496 603 q 459 598 492 601 q 406 592 426 594 l 350 582 q 285 569 317 576 q 226 553 254 561 q 142 507 160 531 q 143 489 138 501 q 169 478 154 483 q 281 440 190 469 q 410 396 367 413 q 526 321 492 363 q 593 136 606 229 q 503 -6 582 53 q 367 -67 446 -47 q 224 -81 289 -86 q 144 -64 188 -76 q 57 -34 101 -51 q 3 -14 13 -17 q -49 30 -32 -3 q -56 97 -67 63 q -12 149 -44 132 q 56 156 21 167 q 128 130 90 144 q 190 107 165 115 q 240 97 214 99 q 322 105 275 93 q 399 138 369 117 q 418 160 417 151 q 393 204 419 172 q 342 232 385 214 q 226 271 308 244 q 104 313 138 299 q -6 392 21 346 q -39 508 -40 450 q 3 617 -36 568 q 169 721 54 682 q 241 741 203 732 q 318 757 279 750 q 382 767 357 764 q 440 774 407 771 q 474 778 472 778 q 539 760 510 783 q 573 701 568 738 q 555 636 578 665 q 496 603 532 607 z "},"t":{"ha":461,"x_min":-147,"x_max":390,"o":"m 47 536 l -51 528 q -117 549 -89 525 q -147 610 -144 574 q -126 675 -150 647 q -65 706 -101 703 l 49 714 q 50 856 50 839 q 76 918 50 892 q 139 944 103 944 q 201 918 175 944 q 228 856 228 892 q 226 717 228 839 l 301 717 q 364 690 338 717 q 390 628 390 664 q 364 565 390 592 q 301 539 338 539 l 225 539 q 224 472 224 504 l 224 244 q 225 169 225 197 q 226 161 226 164 l 236 151 q 297 106 293 108 q 325 42 324 79 q 301 -21 326 6 q 238 -49 275 -47 q 175 -25 201 -50 q 165 -15 169 -19 q 149 -4 160 -11 q 128 11 139 3 q 58 97 78 50 q 50 135 51 111 q 49 163 49 146 q 46 243 47 192 q 47 474 46 328 l 47 536 z "},"u":{"ha":747,"x_min":-22,"x_max":675,"o":"m 171 639 q 156 336 156 429 q 167 175 156 236 q 183 117 172 144 q 200 113 189 114 q 231 111 211 111 l 269 111 q 363 115 351 108 q 440 261 407 144 q 475 474 465 350 q 476 492 476 488 q 473 515 475 497 q 471 550 471 532 q 507 689 465 636 q 585 726 538 729 q 665 669 643 724 q 675 617 675 649 q 672 525 676 585 l 667 464 q 661 411 663 432 l 658 389 q 651 299 653 315 q 649 247 650 283 q 650 203 649 210 q 656 142 651 196 l 664 36 q 642 -29 667 -1 q 582 -60 618 -57 q 528 -47 553 -61 q 493 -7 504 -32 q 457 -35 476 -22 q 420 -53 440 -46 q 384 -63 400 -60 q 346 -68 368 -67 q 313 -69 324 -69 q 284 -67 303 -68 q 264 -67 265 -67 l 253 -67 l 239 -67 l 228 -67 q 181 -64 200 -65 q 65 -17 110 -56 q -8 146 11 31 q -22 336 -21 222 q -7 653 -22 436 q 24 713 -4 689 q 88 735 51 738 q 149 704 125 732 q 171 639 174 676 z "},"v":{"ha":682,"x_min":-14,"x_max":606,"o":"m 156 644 l 261 296 l 290 197 q 313 271 306 253 q 439 611 326 311 q 485 661 451 646 q 553 664 519 676 q 603 617 588 651 q 606 550 618 583 l 479 213 q 458 136 478 207 q 418 36 440 75 q 374 -33 390 -14 q 361 -47 368 -40 q 337 -66 354 -54 q 303 -83 319 -78 q 262 -87 286 -89 q 214 -69 238 -85 q 185 -42 196 -60 q 179 -32 182 -37 l 174 -21 l 167 0 l 147 61 l 90 244 q -13 589 -1 554 q -8 657 -25 624 q 43 701 8 690 q 111 696 78 713 q 156 644 144 679 z "},"w":{"ha":981,"x_min":-33,"x_max":906,"o":"m 142 631 q 199 319 167 482 q 232 167 218 218 q 246 204 239 178 l 254 239 q 265 282 260 264 q 311 424 310 417 q 313 435 313 428 q 312 454 313 442 q 313 493 311 467 q 327 565 314 536 q 367 614 340 594 q 428 635 393 633 q 499 606 471 636 q 515 582 508 594 q 525 556 521 571 q 539 503 532 536 q 565 360 547 463 q 592 214 586 239 l 594 203 l 640 346 l 681 478 l 717 600 l 736 663 q 780 714 747 697 q 848 719 813 731 q 900 676 883 708 q 906 607 917 643 q 886 546 901 594 l 850 425 l 810 293 q 747 103 772 172 q 722 36 733 61 q 710 10 717 21 q 700 -6 706 1 q 668 -35 686 -24 q 515 -10 592 -74 q 453 64 482 18 q 432 118 442 82 q 419 168 426 138 l 418 161 q 376 64 403 101 q 313 -14 336 8 q 157 -54 238 -85 q 104 -8 124 -42 q 89 24 96 6 q 67 94 79 50 q 25 285 49 164 q -33 600 -4 426 q -18 667 -39 638 q 40 703 3 697 q 106 688 76 708 q 142 631 136 667 z "},"x":{"ha":674,"x_min":-39,"x_max":600,"o":"m 307 193 q 124 -64 199 53 q 68 -103 104 -96 q 1 -92 32 -111 q -38 -36 -31 -72 q -26 31 -46 0 q 200 344 60 165 q 28 558 115 458 q 6 623 3 586 q 36 684 8 660 q 101 706 64 708 q 161 675 138 703 q 314 489 239 586 l 425 628 q 484 662 447 657 q 549 644 521 667 q 583 584 578 621 q 564 519 588 547 l 421 340 q 589 81 501 224 q 600 14 608 50 q 560 -41 592 -22 q 493 -51 529 -60 q 439 -11 457 -43 l 307 193 z "},"y":{"ha":721,"x_min":-50,"x_max":644,"o":"m 642 579 q 578 452 624 540 q 511 314 533 364 q 458 171 476 233 q 381 7 443 121 q 326 -85 357 -37 q 278 -158 296 -132 l 217 -240 q 163 -315 175 -297 q 104 -350 140 -344 q 38 -334 68 -356 q 3 -276 8 -312 q 18 -210 -3 -240 l 68 -143 l 117 -76 l 158 -19 q 199 46 181 15 q 69 311 150 139 l -44 549 q -49 617 -61 582 q -5 668 -37 651 q 63 673 28 685 q 114 629 97 661 l 296 249 q 350 386 310 294 q 417 525 372 438 q 481 654 463 615 q 531 700 496 688 q 599 697 565 713 q 644 647 632 682 q 642 579 657 613 z "},"z":{"ha":758,"x_min":-35,"x_max":688,"o":"m 50 682 q 196 689 194 689 q 272 688 222 689 q 340 686 322 686 q 354 688 347 686 q 376 692 361 689 q 407 699 390 696 q 549 678 493 715 q 592 622 583 656 q 594 560 600 589 q 563 489 588 528 q 463 364 531 439 q 353 250 418 314 q 326 225 340 239 l 306 203 q 296 193 297 196 q 281 179 289 188 q 358 176 315 176 q 514 178 426 175 q 553 178 532 178 q 587 180 575 179 q 600 181 599 181 q 663 153 638 179 q 687 90 688 126 q 660 28 686 53 q 597 3 633 3 l 586 3 q 558 1 576 3 q 519 0 539 0 q 356 -1 428 -3 q 185 13 249 1 q 110 35 139 21 q 40 133 43 68 q 108 268 38 208 q 136 289 124 281 l 153 301 q 163 313 158 306 q 228 376 165 314 q 332 483 290 438 l 354 508 l 343 508 q 267 510 317 508 q 199 511 217 511 q 154 510 178 511 q 103 507 131 508 q 58 504 75 506 q -6 527 22 503 q -35 588 -33 551 q -12 653 -36 625 q 50 682 13 681 z "},"{":{"ha":443,"x_min":-81,"x_max":372,"o":"m 342 969 q 304 940 326 957 q 292 933 303 940 q 275 921 281 925 q 253 901 257 907 q 242 781 240 874 q 243 728 242 774 q 244 655 244 683 q 240 604 243 626 q 189 426 225 483 q 149 383 175 403 q 197 338 181 363 q 256 144 260 250 q 251 96 254 125 q 249 58 249 67 q 251 15 249 49 q 264 -46 256 -15 l 283 -118 l 304 -190 q 294 -258 313 -226 q 240 -299 275 -290 q 172 -288 204 -307 q 132 -235 140 -269 q 114 -172 126 -214 q 91 -85 101 -126 q 76 -10 81 -44 q 72 57 72 38 q 75 114 72 76 q 78 153 78 151 q 54 235 79 196 l 19 250 q -81 375 -75 296 q 11 508 -85 458 l 28 517 q 38 522 35 521 q 42 524 40 524 q 65 626 54 549 q 67 661 67 642 q 65 718 67 681 q 64 778 64 756 q 94 979 61 914 q 171 1065 117 1025 l 204 1088 q 225 1103 218 1097 q 290 1125 253 1128 q 351 1094 326 1122 q 372 1030 375 1067 q 342 969 369 993 z "},"|":{"ha":281,"x_min":6,"x_max":210,"o":"m 181 1046 q 201 817 194 933 q 209 560 208 700 q 209 338 210 421 q 204 84 208 256 q 199 -140 200 -87 q 171 -203 197 -178 q 108 -227 144 -228 q 46 -200 71 -226 q 21 -137 21 -174 l 26 89 q 31 341 31 261 q 31 558 32 421 q 24 806 31 694 q 6 1026 17 918 q 23 1091 0 1063 q 83 1124 46 1119 q 148 1106 119 1129 q 181 1046 176 1083 z "},"}":{"ha":486,"x_min":-40,"x_max":413,"o":"m 100 1093 q 124 1076 108 1086 l 158 1057 q 239 983 213 1024 q 283 890 268 943 q 301 803 299 838 q 303 718 303 768 l 303 694 l 303 669 q 303 650 303 665 q 304 629 304 635 q 305 611 304 624 q 306 592 306 599 q 308 576 307 586 q 311 561 310 567 l 317 546 q 322 531 319 538 l 328 526 q 340 515 333 521 l 346 510 q 413 399 406 457 q 375 278 421 340 l 353 246 q 325 110 338 201 q 326 50 325 103 q 310 -58 328 -15 q 269 -133 296 -94 q 212 -211 243 -172 q 175 -258 181 -250 q 118 -296 154 -289 q 51 -282 82 -303 q 14 -225 21 -261 q 28 -158 7 -189 q 77 -94 50 -126 q 119 -39 104 -61 q 146 8 135 -17 q 149 44 149 18 q 150 135 146 111 q 183 301 164 242 q 228 376 194 333 q 158 461 175 424 q 145 499 151 479 q 135 540 139 518 q 130 577 132 561 q 127 617 128 593 q 126 652 126 642 q 126 688 125 663 q 126 718 126 713 q 94 883 126 836 q 65 906 88 892 l 33 924 q -6 949 10 938 q -40 1007 -35 971 q -24 1073 -46 1043 q 33 1108 -3 1103 q 100 1093 69 1114 z "},"~":{"ha":758,"x_min":-35,"x_max":688,"o":"m 225 524 q 235 513 229 517 q 247 515 243 506 q 239 529 251 529 q 225 524 233 529 m -7 539 q 6 551 0 544 l 21 571 q 42 596 31 583 q 154 671 93 657 q 343 654 282 700 q 396 538 394 615 q 428 542 410 539 q 463 567 439 543 q 481 588 465 571 l 514 619 l 543 647 q 609 666 572 671 q 669 633 646 661 q 687 567 692 604 q 654 508 682 531 q 636 492 644 500 l 614 469 l 588 442 q 456 367 524 378 q 267 399 328 346 q 218 519 219 440 q 193 499 207 513 l 176 482 q 163 465 175 481 q 139 433 151 449 l 115 408 q 51 385 88 383 q -11 413 14 386 q -35 477 -36 440 q -7 539 -33 514 z "},"":{"ha":357,"x_min":22,"x_max":279,"o":"m 279 917 l 186 694 q 138 647 172 661 q 70 647 104 633 q 22 695 36 661 q 22 764 8 729 l 115 986 q 163 1033 129 1019 q 231 1033 197 1047 q 279 985 265 1019 q 279 917 293 951 z "},"":{"ha":343,"x_min":10,"x_max":267,"o":"m 267 911 l 176 674 q 129 625 163 640 q 62 623 96 610 q 13 669 28 636 q 10 738 -3 703 l 100 975 q 147 1024 114 1008 q 215 1026 181 1039 q 264 979 249 1013 q 267 911 279 946 z "},"":{"ha":535,"x_min":-29,"x_max":458,"o":"m -29 724 l 51 961 q 97 1012 64 996 q 165 1016 129 1028 q 216 972 200 1004 q 221 903 232 939 l 140 665 q 95 615 128 631 q 27 610 63 599 q -24 655 -8 622 q -29 724 -40 688 m 206 693 l 222 771 q 233 817 232 811 q 240 845 233 822 q 249 873 246 868 q 265 917 251 878 q 292 992 278 956 q 337 1042 304 1026 q 404 1046 369 1058 q 455 1001 439 1033 q 458 933 471 968 l 433 861 l 419 821 q 410 796 417 815 q 403 771 404 776 q 395 728 403 765 q 378 654 388 692 q 339 599 369 618 q 272 588 308 579 q 217 626 236 596 q 206 693 197 657 z "},"":{"ha":517,"x_min":-35,"x_max":440,"o":"m 225 908 l 131 692 q 81 645 115 658 q 13 647 47 632 q -34 695 -21 661 q -33 764 -47 729 l 61 981 q 110 1027 76 1014 q 178 1026 144 1040 q 226 977 213 1011 q 225 908 239 943 m 438 883 l 343 679 q 293 633 328 646 q 225 636 258 621 q 179 686 192 651 q 182 754 167 721 l 276 958 q 326 1004 292 992 q 394 1001 361 1017 q 440 951 428 986 q 438 883 453 917 z "},"":{"ha":1389,"x_min":0,"x_max":0,"o":""}}}
